<svg width="18" height="18" viewBox="0 0 18 18" fill="none" xmlns="http://www.w3.org/2000/svg">
<g clip-path="url(#clip0_799_481)">
<path d="M9.12596 18C9.34853 18.0001 9.56614 17.9342 9.75124 17.8106C9.93634 17.687 10.0806 17.5112 10.1658 17.3056C10.251 17.1 10.2733 16.8737 10.2298 16.6554C10.1864 16.4371 10.0791 16.2366 9.9217 16.0792L4.16771 10.326C3.99355 10.1519 3.85539 9.94516 3.76114 9.71764C3.66688 9.49012 3.61836 9.24626 3.61836 8.99999C3.61836 8.75372 3.66688 8.50987 3.76114 8.28235C3.85539 8.05483 3.99355 7.84811 4.16771 7.67399L9.9217 1.92074C10.0262 1.81624 10.1091 1.69219 10.1657 1.55565C10.2222 1.41912 10.2513 1.27278 10.2513 1.12499C10.2513 0.82653 10.1328 0.54029 9.9217 0.329244C9.71066 0.118198 9.42442 -0.000366211 9.12596 -0.000366211C8.97817 -0.000366211 8.83183 0.0287421 8.6953 0.0852968C8.55876 0.141851 8.43471 0.224745 8.33021 0.329244L2.57696 6.08324C1.80342 6.85683 1.36884 7.90601 1.36884 8.99999C1.36884 10.094 1.80342 11.1432 2.57696 11.9167L8.33021 17.6707C8.43472 17.7752 8.55879 17.858 8.69533 17.9145C8.83187 17.971 8.97819 18.0001 9.12596 18Z" fill="white"/>
<path d="M16.2847 18C16.5072 17.9999 16.7247 17.9339 16.9097 17.8102C17.0946 17.6866 17.2388 17.5108 17.3239 17.3052C17.409 17.0996 17.4312 16.8734 17.3877 16.6552C17.3443 16.4369 17.2371 16.2365 17.0797 16.0792L10.2659 9.26547C10.231 9.23064 10.2033 9.18926 10.1844 9.1437C10.1655 9.09814 10.1557 9.0493 10.1557 8.99997C10.1557 8.95065 10.1655 8.90181 10.1844 8.85625C10.2033 8.81069 10.231 8.76931 10.2659 8.73447L17.0797 1.92072C17.2907 1.70978 17.4093 1.42363 17.4094 1.12524C17.4095 0.826845 17.291 0.540644 17.08 0.329598C16.8691 0.118552 16.5829 -5.17129e-05 16.2846 -0.000122039C15.9862 -0.000192365 15.7 0.118277 15.4889 0.329223L8.67441 7.14372C8.18358 7.63666 7.90801 8.30397 7.90801 8.9996C7.90801 9.69523 8.18358 10.3625 8.67441 10.8555L15.4889 17.6707C15.5934 17.7752 15.7175 17.858 15.854 17.9145C15.9906 17.971 16.1369 18 16.2847 18Z" fill="#F4F4F5"/>
</g>
<defs>
<clipPath id="clip0_799_481">
<rect width="18" height="18" fill="white" transform="matrix(-1 0 0 1 18 0)"/>
</clipPath>
</defs>
</svg>
